<svg width="16" height="16" viewBox="0 0 16 16" fill="none" xmlns="http://www.w3.org/2000/svg">
<path fill-rule="evenodd" clip-rule="evenodd" d="M0.666626 8.00002C0.666626 3.94993 3.94987 0.666687 7.99996 0.666687C12.05 0.666687 15.3333 3.94993 15.3333 8.00002C15.3333 12.0501 12.05 15.3334 7.99996 15.3334C3.94987 15.3334 0.666626 12.0501 0.666626 8.00002Z" fill="#333333"/>
<path fill-rule="evenodd" clip-rule="evenodd" d="M11.5404 5.362C11.8008 5.62235 11.8008 6.04446 11.5404 6.30481L7.40235 10.6381C7.142 10.8985 6.71989 10.8985 6.45954 10.6381L4.45954 8.63814C4.19919 8.37779 4.19919 7.95568 4.45954 7.69533C4.71989 7.43498 5.142 7.43498 5.40235 7.69533L6.93095 9.22393L10.5976 5.362C10.858 5.10165 11.2801 5.10165 11.5404 5.362Z" fill="white"/>
</svg>
