<?xml version="1.0" encoding="UTF-8"?>
<svg xmlns="http://www.w3.org/2000/svg" xmlns:xlink="http://www.w3.org/1999/xlink" width="64px" height="64px" viewBox="0 0 64 63" version="1.1">
<g id="surface1">
<path style=" stroke:none;fill-rule:nonzero;fill:rgb(19.607843%,29.019608%,36.862745%);fill-opacity:1;" d="M 64 31.5 C 64 48.898438 49.671875 63 32 63 C 14.328125 63 0 48.898438 0 31.5 C 0 14.101562 14.328125 0 32 0 C 49.671875 0 64 14.101562 64 31.5 Z M 64 31.5 "/>
<path style=" stroke:none;fill-rule:nonzero;fill:rgb(43.529412%,48.235294%,51.764706%);fill-opacity:1;" d="M 17.265625 26.957031 L 46.734375 26.957031 L 46.734375 49.15625 L 17.265625 49.15625 Z M 17.265625 26.957031 "/>
<path style=" stroke:none;fill-rule:nonzero;fill:rgb(90.196078%,91.372549%,93.333333%);fill-opacity:1;" d="M 45.671875 28.214844 L 48.164062 28.214844 L 48.164062 48.507812 L 45.671875 48.507812 Z M 45.671875 28.214844 "/>
<path style=" stroke:none;fill-rule:nonzero;fill:rgb(67.45098%,70.196078%,72.941176%);fill-opacity:1;" d="M 45.078125 28.214844 L 48.746094 28.214844 L 48.746094 30.492188 L 45.078125 30.492188 Z M 45.078125 28.214844 "/>
<path style=" stroke:none;fill-rule:nonzero;fill:rgb(67.45098%,70.196078%,72.941176%);fill-opacity:1;" d="M 45.078125 46.230469 L 48.746094 46.230469 L 48.746094 48.507812 L 45.078125 48.507812 Z M 45.078125 46.230469 "/>
<path style=" stroke:none;fill-rule:nonzero;fill:rgb(90.196078%,91.372549%,93.333333%);fill-opacity:1;" d="M 35.730469 28.214844 L 38.222656 28.214844 L 38.222656 48.507812 L 35.730469 48.507812 Z M 35.730469 28.214844 "/>
<path style=" stroke:none;fill-rule:nonzero;fill:rgb(67.45098%,70.196078%,72.941176%);fill-opacity:1;" d="M 35.136719 28.214844 L 38.804688 28.214844 L 38.804688 30.492188 L 35.136719 30.492188 Z M 35.136719 28.214844 "/>
<path style=" stroke:none;fill-rule:nonzero;fill:rgb(67.45098%,70.196078%,72.941176%);fill-opacity:1;" d="M 35.136719 46.230469 L 38.804688 46.230469 L 38.804688 48.507812 L 35.136719 48.507812 Z M 35.136719 46.230469 "/>
<path style=" stroke:none;fill-rule:nonzero;fill:rgb(90.196078%,91.372549%,93.333333%);fill-opacity:1;" d="M 25.789062 28.214844 L 28.28125 28.214844 L 28.28125 48.507812 L 25.789062 48.507812 Z M 25.789062 28.214844 "/>
<path style=" stroke:none;fill-rule:nonzero;fill:rgb(67.45098%,70.196078%,72.941176%);fill-opacity:1;" d="M 25.195312 28.214844 L 28.863281 28.214844 L 28.863281 30.492188 L 25.195312 30.492188 Z M 25.195312 28.214844 "/>
<path style=" stroke:none;fill-rule:nonzero;fill:rgb(67.45098%,70.196078%,72.941176%);fill-opacity:1;" d="M 25.195312 46.230469 L 28.863281 46.230469 L 28.863281 48.507812 L 25.195312 48.507812 Z M 25.195312 46.230469 "/>
<path style=" stroke:none;fill-rule:nonzero;fill:rgb(90.196078%,91.372549%,93.333333%);fill-opacity:1;" d="M 15.835938 28.214844 L 18.328125 28.214844 L 18.328125 48.507812 L 15.835938 48.507812 Z M 15.835938 28.214844 "/>
<path style=" stroke:none;fill-rule:nonzero;fill:rgb(67.45098%,70.196078%,72.941176%);fill-opacity:1;" d="M 15.253906 28.214844 L 18.921875 28.214844 L 18.921875 30.492188 L 15.253906 30.492188 Z M 15.253906 28.214844 "/>
<path style=" stroke:none;fill-rule:nonzero;fill:rgb(67.45098%,70.196078%,72.941176%);fill-opacity:1;" d="M 15.253906 46.230469 L 18.921875 46.230469 L 18.921875 48.507812 L 15.253906 48.507812 Z M 15.253906 46.230469 "/>
<path style=" stroke:none;fill-rule:nonzero;fill:rgb(90.196078%,91.372549%,93.333333%);fill-opacity:1;" d="M 32 11.816406 L 12.003906 28.214844 L 51.996094 28.214844 Z M 32 11.816406 "/>
<path style=" stroke:none;fill-rule:nonzero;fill:rgb(67.45098%,70.196078%,72.941176%);fill-opacity:1;" d="M 17.53125 26.246094 L 32 14.378906 L 46.46875 26.246094 Z M 17.53125 26.246094 "/>
<path style=" stroke:none;fill-rule:nonzero;fill:rgb(90.196078%,91.372549%,93.333333%);fill-opacity:1;" d="M 35.414062 21.5625 C 35.414062 23.421875 33.886719 24.925781 32 24.925781 C 30.113281 24.925781 28.585938 23.421875 28.585938 21.5625 C 28.585938 19.707031 30.113281 18.203125 32 18.203125 C 33.886719 18.203125 35.414062 19.707031 35.414062 21.5625 Z M 35.414062 21.5625 "/>
<path style=" stroke:none;fill-rule:nonzero;fill:rgb(16.862745%,23.137255%,30.588235%);fill-opacity:1;" d="M 12.003906 48.496094 L 52.007812 48.496094 L 52.007812 51.183594 L 12.003906 51.183594 Z M 12.003906 48.496094 "/>
<path style=" stroke:none;fill-rule:nonzero;fill:rgb(19.607843%,29.019608%,36.862745%);fill-opacity:1;" d="M 29.699219 40.117188 L 34.832031 40.117188 L 34.832031 48.507812 L 29.699219 48.507812 Z M 29.699219 40.117188 "/>
</g>
</svg>
